<?xml version="1.0" standalone="no"?>
<!DOCTYPE svg PUBLIC "-//W3C//DTD SVG 20010904//EN"
 "http://www.w3.org/TR/2001/REC-SVG-20010904/DTD/svg10.dtd">
<svg version="1.0" xmlns="http://www.w3.org/2000/svg"
 width="512.000000pt" height="512.000000pt" viewBox="0 0 512.000000 512.000000"
 preserveAspectRatio="xMidYMid meet">
<metadata>
Created by potrace 1.14, written by Peter Selinger 2001-2017
</metadata>
<g transform="translate(0.000000,512.000000) scale(0.100000,-0.100000)"
fill="#000000" stroke="none">
<path d="M2244 4321 c-2 -2 -4 -112 -4 -243 l0 -238 240 0 240 0 1 43 c2 197
0 430 -5 434 -7 7 -465 10 -472 4z"/>
<path d="M964 3681 c-2 -2 -4 -112 -4 -243 l0 -238 240 0 240 0 1 38 c2 147
-1 436 -6 440 -6 6 -465 9 -471 3z"/>
<path d="M1610 3682 c-6 -2 -10 -92 -10 -243 l0 -239 240 0 240 0 0 43 c3 214
0 430 -4 434 -6 6 -449 10 -466 5z"/>
<path d="M2244 3681 c-2 -2 -4 -112 -4 -243 l0 -238 243 0 242 0 0 240 c0 153
-4 240 -10 241 -40 3 -468 3 -471 0z"/>
<path d="M4004 3362 c-171 -205 -196 -511 -64 -759 l38 -71 -56 -25 c-80 -36
-175 -66 -262 -85 -67 -14 -272 -16 -1826 -17 -963 -1 -1755 -5 -1760 -8 -26
-15 -25 -353 1 -477 3 -14 7 -34 9 -45 111 -550 604 -992 1266 -1135 170 -36
263 -45 480 -45 148 1 220 5 370 21 67 7 271 43 305 54 17 5 47 12 67 15 46 8
253 74 339 110 457 189 847 508 1113 910 109 164 197 326 262 483 l18 42 67 0
c246 0 461 81 592 224 45 49 128 186 121 198 -15 24 -168 87 -264 109 -75 17
-221 18 -305 2 -38 -7 -75 -13 -81 -13 -6 0 -16 23 -23 52 -25 109 -113 266
-198 352 -37 38 -166 146 -174 146 -2 0 -18 -17 -35 -38z m-2853 -1432 c88
-34 138 -89 161 -180 67 -261 -273 -439 -449 -235 -51 58 -65 98 -65 182 1
174 186 297 353 233z"/>
<path d="M995 1813 c-43 -20 -77 -77 -77 -125 1 -64 49 -123 108 -134 147 -28
229 159 109 248 -31 24 -103 29 -140 11z"/>
<path d="M324 3041 c-2 -2 -4 -112 -4 -243 l0 -238 240 0 240 0 1 43 c2 198 0
430 -5 434 -7 7 -465 10 -472 4z"/>
<path d="M964 3041 c-2 -2 -4 -112 -4 -243 l0 -238 240 0 240 0 1 43 c2 198 0
430 -5 434 -7 7 -465 10 -472 4z"/>
<path d="M1604 3041 c-2 -2 -4 -112 -4 -243 l0 -238 240 0 240 0 1 43 c2 198
0 430 -5 434 -7 7 -465 10 -472 4z"/>
<path d="M2244 3041 c-2 -2 -4 -112 -4 -243 l0 -238 240 0 240 0 1 38 c2 148
-1 436 -6 440 -6 6 -465 9 -471 3z"/>
<path d="M2890 3042 c-6 -2 -10 -92 -10 -243 l0 -239 240 0 240 0 0 43 c3 214
0 430 -4 434 -6 6 -449 10 -466 5z"/>
</g>
</svg>
